<mxfile host="app.diagrams.net" modified="2020-03-19T05:10:18.704Z" agent="Mozilla/5.0 (Windows NT 10.0; Win64; x64) AppleWebKit/537.36 (KHTML, like Gecko) Chrome/80.0.3987.132 Safari/537.36" etag="etkF1G2t-2vVMz2CqYWf" version="12.8.5" type="github" pages="5">
  <diagram id="35m1pFO__Q9W-eGyACrk" name="고객등록">
    <mxGraphModel dx="1422" dy="833" grid="1" gridSize="10" guides="1" tooltips="1" connect="1" arrows="1" fold="1" page="1" pageScale="1" pageWidth="827" pageHeight="1169" background="#ffffff" math="0" shadow="0">
      <root>
        <mxCell id="0" />
        <mxCell id="1" parent="0" />
        <mxCell id="ytz6k5QB4HjktE-Ty5AJ-1" value="" style="rounded=0;html=1;jettySize=auto;orthogonalLoop=1;fontSize=11;endArrow=block;endFill=0;endSize=8;strokeWidth=1;shadow=0;labelBackgroundColor=none;edgeStyle=orthogonalEdgeStyle;fontFamily=KB금융 본문체;" parent="1" source="ytz6k5QB4HjktE-Ty5AJ-2" target="ytz6k5QB4HjktE-Ty5AJ-4" edge="1">
          <mxGeometry relative="1" as="geometry" />
        </mxCell>
        <mxCell id="ytz6k5QB4HjktE-Ty5AJ-2" value="고객 등록" style="rounded=1;whiteSpace=wrap;html=1;fontSize=12;glass=0;strokeWidth=1;shadow=0;fontFamily=KB금융 본문체;" parent="1" vertex="1">
          <mxGeometry x="160" y="80" width="120" height="40" as="geometry" />
        </mxCell>
        <mxCell id="ytz6k5QB4HjktE-Ty5AJ-3" value="Yes" style="rounded=0;html=1;jettySize=auto;orthogonalLoop=1;fontSize=11;endArrow=block;endFill=0;endSize=8;strokeWidth=1;shadow=0;labelBackgroundColor=none;edgeStyle=orthogonalEdgeStyle;fontFamily=KB금융 본문체;" parent="1" source="ytz6k5QB4HjktE-Ty5AJ-4" target="ytz6k5QB4HjktE-Ty5AJ-8" edge="1">
          <mxGeometry y="20" relative="1" as="geometry">
            <mxPoint as="offset" />
          </mxGeometry>
        </mxCell>
        <mxCell id="ytz6k5QB4HjktE-Ty5AJ-4" value="법인&amp;nbsp;&lt;br&gt;기관인가?" style="rhombus;whiteSpace=wrap;html=1;shadow=0;fontFamily=KB금융 본문체;fontSize=12;align=center;strokeWidth=1;spacing=6;spacingTop=-4;" parent="1" vertex="1">
          <mxGeometry x="170" y="170" width="100" height="80" as="geometry" />
        </mxCell>
        <mxCell id="ytz6k5QB4HjktE-Ty5AJ-5" value="등록불가" style="rounded=1;whiteSpace=wrap;html=1;fontSize=12;glass=0;strokeWidth=1;shadow=0;fontFamily=KB금융 본문체;" parent="1" vertex="1">
          <mxGeometry x="640" y="190" width="120" height="40" as="geometry" />
        </mxCell>
        <mxCell id="ytz6k5QB4HjktE-Ty5AJ-7" value="Yes" style="edgeStyle=orthogonalEdgeStyle;rounded=0;html=1;jettySize=auto;orthogonalLoop=1;fontSize=11;endArrow=block;endFill=0;endSize=8;strokeWidth=1;shadow=0;labelBackgroundColor=none;fontFamily=KB금융 본문체;" parent="1" source="ytz6k5QB4HjktE-Ty5AJ-8" target="ytz6k5QB4HjktE-Ty5AJ-10" edge="1">
          <mxGeometry y="10" relative="1" as="geometry">
            <mxPoint as="offset" />
          </mxGeometry>
        </mxCell>
        <mxCell id="_0os1a-HSe3HsZmniFyu-7" value="" style="edgeStyle=orthogonalEdgeStyle;rounded=0;orthogonalLoop=1;jettySize=auto;html=1;endArrow=block;endFill=0;fontFamily=KB금융 본문체;" parent="1" source="ytz6k5QB4HjktE-Ty5AJ-8" target="_0os1a-HSe3HsZmniFyu-6" edge="1">
          <mxGeometry relative="1" as="geometry" />
        </mxCell>
        <mxCell id="ytz6k5QB4HjktE-Ty5AJ-8" value="기등록된&lt;br&gt;고객인가?" style="rhombus;whiteSpace=wrap;html=1;shadow=0;fontFamily=KB금융 본문체;fontSize=12;align=center;strokeWidth=1;spacing=6;spacingTop=-4;" parent="1" vertex="1">
          <mxGeometry x="170" y="290" width="100" height="80" as="geometry" />
        </mxCell>
        <mxCell id="ytz6k5QB4HjktE-Ty5AJ-9" value="고객등록 완료" style="rounded=1;whiteSpace=wrap;html=1;fontSize=12;glass=0;strokeWidth=1;shadow=0;fontFamily=KB금융 본문체;" parent="1" vertex="1">
          <mxGeometry x="160" y="810" width="120" height="40" as="geometry" />
        </mxCell>
        <mxCell id="ytz6k5QB4HjktE-Ty5AJ-10" value="고객수정" style="rounded=1;whiteSpace=wrap;html=1;fontSize=12;glass=0;strokeWidth=1;shadow=0;fontFamily=KB금융 본문체;" parent="1" vertex="1">
          <mxGeometry x="640" y="310" width="120" height="40" as="geometry" />
        </mxCell>
        <mxCell id="ytz6k5QB4HjktE-Ty5AJ-11" value="해외&lt;br&gt;법인인가?" style="rhombus;whiteSpace=wrap;html=1;shadow=0;fontFamily=KB금융 본문체;fontSize=12;align=center;strokeWidth=1;spacing=6;spacingTop=-4;" parent="1" vertex="1">
          <mxGeometry x="430" y="170" width="100" height="80" as="geometry" />
        </mxCell>
        <mxCell id="ytz6k5QB4HjktE-Ty5AJ-12" value="No" style="edgeStyle=orthogonalEdgeStyle;rounded=0;html=1;jettySize=auto;orthogonalLoop=1;fontSize=11;endArrow=block;endFill=0;endSize=8;strokeWidth=1;shadow=0;labelBackgroundColor=none;entryX=0;entryY=0.5;entryDx=0;entryDy=0;fontFamily=KB금융 본문체;" parent="1" source="ytz6k5QB4HjktE-Ty5AJ-4" target="ytz6k5QB4HjktE-Ty5AJ-11" edge="1">
          <mxGeometry y="10" relative="1" as="geometry">
            <mxPoint as="offset" />
          </mxGeometry>
        </mxCell>
        <mxCell id="ytz6k5QB4HjktE-Ty5AJ-13" value="No" style="edgeStyle=orthogonalEdgeStyle;rounded=0;orthogonalLoop=1;jettySize=auto;entryX=0;entryY=0.5;entryDx=0;entryDy=0;html=1;endArrow=block;endFill=0;fontFamily=KB금융 본문체;" parent="1" source="ytz6k5QB4HjktE-Ty5AJ-11" target="ytz6k5QB4HjktE-Ty5AJ-5" edge="1">
          <mxGeometry x="-0.0909" y="10" relative="1" as="geometry">
            <mxPoint x="610" y="210" as="targetPoint" />
            <mxPoint as="offset" />
          </mxGeometry>
        </mxCell>
        <mxCell id="ytz6k5QB4HjktE-Ty5AJ-14" value="" style="endArrow=block;html=1;exitX=0.5;exitY=1;exitDx=0;exitDy=0;endFill=0;fontFamily=KB금융 본문체;" parent="1" source="ytz6k5QB4HjktE-Ty5AJ-11" edge="1">
          <mxGeometry width="50" height="50" relative="1" as="geometry">
            <mxPoint x="390" y="340" as="sourcePoint" />
            <mxPoint x="220" y="280" as="targetPoint" />
            <Array as="points">
              <mxPoint x="480" y="280" />
            </Array>
          </mxGeometry>
        </mxCell>
        <mxCell id="ytz6k5QB4HjktE-Ty5AJ-16" value="" style="edgeStyle=orthogonalEdgeStyle;rounded=0;orthogonalLoop=1;jettySize=auto;html=1;endArrow=block;endFill=0;exitX=1;exitY=0.5;exitDx=0;exitDy=0;fontFamily=KB금융 본문체;" parent="1" source="_0os1a-HSe3HsZmniFyu-5" target="ytz6k5QB4HjktE-Ty5AJ-19" edge="1">
          <mxGeometry relative="1" as="geometry">
            <mxPoint x="270" y="470" as="sourcePoint" />
            <Array as="points">
              <mxPoint x="450" y="545" />
              <mxPoint x="450" y="410" />
            </Array>
          </mxGeometry>
        </mxCell>
        <mxCell id="ytz6k5QB4HjktE-Ty5AJ-17" value="Yes" style="text;html=1;align=center;verticalAlign=middle;resizable=0;points=[];labelBackgroundColor=#ffffff;fontFamily=KB금융 본문체;" parent="ytz6k5QB4HjktE-Ty5AJ-16" vertex="1" connectable="0">
          <mxGeometry x="0.04" y="1" relative="1" as="geometry">
            <mxPoint x="-19.03" y="-9" as="offset" />
          </mxGeometry>
        </mxCell>
        <mxCell id="_0os1a-HSe3HsZmniFyu-13" value="" style="edgeStyle=orthogonalEdgeStyle;rounded=0;orthogonalLoop=1;jettySize=auto;html=1;endArrow=block;endFill=0;fontFamily=KB금융 본문체;" parent="1" source="ytz6k5QB4HjktE-Ty5AJ-19" target="_0os1a-HSe3HsZmniFyu-12" edge="1">
          <mxGeometry relative="1" as="geometry" />
        </mxCell>
        <mxCell id="ytz6k5QB4HjktE-Ty5AJ-19" value="계정생성 및 알림전송" style="rounded=1;whiteSpace=wrap;html=1;fontSize=12;glass=0;strokeWidth=1;shadow=0;fontFamily=KB금융 본문체;" parent="1" vertex="1">
          <mxGeometry x="640" y="390" width="120" height="40" as="geometry" />
        </mxCell>
        <mxCell id="i00lbcandodRxZSwPOdE-7" value="No" style="edgeStyle=orthogonalEdgeStyle;rounded=0;orthogonalLoop=1;jettySize=auto;html=1;endArrow=block;endFill=0;fontFamily=KB금융 본문체;" parent="1" target="usVQKIJeshJ5vLMX2nrd-5" edge="1">
          <mxGeometry x="-0.5385" y="-10" relative="1" as="geometry">
            <mxPoint x="220" y="585" as="sourcePoint" />
            <mxPoint as="offset" />
          </mxGeometry>
        </mxCell>
        <mxCell id="i00lbcandodRxZSwPOdE-3" value="No" style="edgeStyle=orthogonalEdgeStyle;rounded=0;orthogonalLoop=1;jettySize=auto;html=1;endArrow=block;endFill=0;exitX=0.5;exitY=1;exitDx=0;exitDy=0;fontFamily=KB금융 본문체;" parent="1" source="usVQKIJeshJ5vLMX2nrd-5" target="ytz6k5QB4HjktE-Ty5AJ-9" edge="1">
          <mxGeometry y="18" relative="1" as="geometry">
            <Array as="points">
              <mxPoint x="220" y="780" />
              <mxPoint x="220" y="780" />
            </Array>
            <mxPoint as="offset" />
          </mxGeometry>
        </mxCell>
        <mxCell id="i00lbcandodRxZSwPOdE-4" value="Yes" style="edgeStyle=orthogonalEdgeStyle;rounded=0;orthogonalLoop=1;jettySize=auto;html=1;entryX=0;entryY=0.75;entryDx=0;entryDy=0;endArrow=block;endFill=0;exitX=0;exitY=0.5;exitDx=0;exitDy=0;fontFamily=KB금융 본문체;" parent="1" source="usVQKIJeshJ5vLMX2nrd-5" target="ytz6k5QB4HjktE-Ty5AJ-2" edge="1">
          <mxGeometry y="20" relative="1" as="geometry">
            <mxPoint x="90" y="680" as="targetPoint" />
            <Array as="points">
              <mxPoint x="140" y="700" />
              <mxPoint x="140" y="110" />
            </Array>
            <mxPoint as="offset" />
          </mxGeometry>
        </mxCell>
        <mxCell id="usVQKIJeshJ5vLMX2nrd-5" value="추가 &lt;br&gt;등록하는가?" style="rhombus;whiteSpace=wrap;html=1;fontFamily=KB금융 본문체;" parent="1" vertex="1">
          <mxGeometry x="170" y="650" width="100" height="100" as="geometry" />
        </mxCell>
        <mxCell id="_0os1a-HSe3HsZmniFyu-25" value="" style="edgeStyle=orthogonalEdgeStyle;rounded=0;orthogonalLoop=1;jettySize=auto;html=1;endArrow=block;endFill=0;entryX=0.5;entryY=0;entryDx=0;entryDy=0;fontFamily=KB금융 본문체;" parent="1" source="_0os1a-HSe3HsZmniFyu-1" target="_0os1a-HSe3HsZmniFyu-3" edge="1">
          <mxGeometry relative="1" as="geometry">
            <mxPoint x="699" y="710" as="targetPoint" />
          </mxGeometry>
        </mxCell>
        <mxCell id="_0os1a-HSe3HsZmniFyu-1" value="계정생성/등록" style="rounded=0;whiteSpace=wrap;html=1;fontFamily=KB금융 본문체;" parent="1" vertex="1">
          <mxGeometry x="651" y="600" width="96" height="30" as="geometry" />
        </mxCell>
        <mxCell id="_0os1a-HSe3HsZmniFyu-3" value="SMS 발송" style="rounded=0;whiteSpace=wrap;html=1;fontFamily=KB금융 본문체;" parent="1" vertex="1">
          <mxGeometry x="651" y="660" width="96" height="30" as="geometry" />
        </mxCell>
        <mxCell id="_0os1a-HSe3HsZmniFyu-5" value="리봇 계정&lt;br&gt;생성하는가?" style="rhombus;whiteSpace=wrap;html=1;shadow=0;fontFamily=KB금융 본문체;fontSize=12;align=center;strokeWidth=1;spacing=6;spacingTop=-4;" parent="1" vertex="1">
          <mxGeometry x="170" y="505" width="100" height="80" as="geometry" />
        </mxCell>
        <mxCell id="_0os1a-HSe3HsZmniFyu-8" value="" style="edgeStyle=orthogonalEdgeStyle;rounded=0;orthogonalLoop=1;jettySize=auto;html=1;endArrow=block;endFill=0;fontFamily=KB금융 본문체;" parent="1" source="_0os1a-HSe3HsZmniFyu-6" target="_0os1a-HSe3HsZmniFyu-5" edge="1">
          <mxGeometry relative="1" as="geometry" />
        </mxCell>
        <mxCell id="_0os1a-HSe3HsZmniFyu-6" value="등록" style="rounded=0;whiteSpace=wrap;html=1;fontFamily=KB금융 본문체;" parent="1" vertex="1">
          <mxGeometry x="172" y="430" width="96" height="30" as="geometry" />
        </mxCell>
        <mxCell id="_0os1a-HSe3HsZmniFyu-16" value="No" style="edgeStyle=orthogonalEdgeStyle;rounded=0;orthogonalLoop=1;jettySize=auto;html=1;endArrow=block;endFill=0;fontFamily=KB금융 본문체;" parent="1" source="_0os1a-HSe3HsZmniFyu-12" edge="1">
          <mxGeometry y="-10" relative="1" as="geometry">
            <mxPoint x="700" y="600" as="targetPoint" />
            <mxPoint as="offset" />
          </mxGeometry>
        </mxCell>
        <mxCell id="_0os1a-HSe3HsZmniFyu-21" value="Yes" style="edgeStyle=orthogonalEdgeStyle;rounded=0;orthogonalLoop=1;jettySize=auto;html=1;endArrow=block;endFill=0;entryX=0.5;entryY=0;entryDx=0;entryDy=0;fontFamily=KB금융 본문체;" parent="1" source="_0os1a-HSe3HsZmniFyu-12" target="_0os1a-HSe3HsZmniFyu-18" edge="1">
          <mxGeometry x="-0.4427" y="-10" relative="1" as="geometry">
            <mxPoint x="571" y="520" as="targetPoint" />
            <mxPoint as="offset" />
          </mxGeometry>
        </mxCell>
        <mxCell id="_0os1a-HSe3HsZmniFyu-12" value="기등록된&lt;br&gt;고객인가?" style="rhombus;whiteSpace=wrap;html=1;shadow=0;fontFamily=KB금융 본문체;fontSize=12;align=center;strokeWidth=1;spacing=6;spacingTop=-4;" parent="1" vertex="1">
          <mxGeometry x="651" y="480" width="98" height="80" as="geometry" />
        </mxCell>
        <mxCell id="_0os1a-HSe3HsZmniFyu-24" value="" style="edgeStyle=orthogonalEdgeStyle;rounded=0;orthogonalLoop=1;jettySize=auto;html=1;endArrow=block;endFill=0;fontFamily=KB금융 본문체;" parent="1" source="_0os1a-HSe3HsZmniFyu-18" edge="1">
          <mxGeometry relative="1" as="geometry">
            <mxPoint x="220" y="615" as="targetPoint" />
          </mxGeometry>
        </mxCell>
        <mxCell id="_0os1a-HSe3HsZmniFyu-18" value="메세지 알림" style="rounded=0;whiteSpace=wrap;html=1;fontFamily=KB금융 본문체;" parent="1" vertex="1">
          <mxGeometry x="500" y="600" width="96" height="30" as="geometry" />
        </mxCell>
        <mxCell id="hL8k-KPLr9je1jSlOouJ-1" value="&lt;h1&gt;고객 등록&lt;/h1&gt;&lt;div&gt;1. 기본적인 고객정보 등록&lt;/div&gt;&lt;div&gt;2. 리서치 리포트 메일 수신&amp;nbsp; 선택&lt;/div&gt;&lt;div&gt;3. 리봇 계정 생성&amp;nbsp;&lt;/div&gt;" style="text;html=1;strokeColor=#000000;fillColor=none;spacing=5;spacingTop=-20;whiteSpace=wrap;overflow=hidden;rounded=0;fontFamily=KB금융 본문체;" parent="1" vertex="1">
          <mxGeometry x="596" y="20" width="190" height="120" as="geometry" />
        </mxCell>
        <mxCell id="u9pyTOhQtIGPN4Iamk1u-1" value="Customers" style="swimlane;childLayout=stackLayout;horizontal=1;startSize=30;horizontalStack=0;fillColor=#008cff;fontColor=#FFFFFF;rounded=1;fontSize=14;fontStyle=0;strokeWidth=2;resizeParent=0;resizeLast=1;shadow=0;dashed=0;align=center;fontFamily=KB금융 본문체;" parent="1" vertex="1">
          <mxGeometry x="390" y="760" width="160" height="330" as="geometry" />
        </mxCell>
        <mxCell id="u9pyTOhQtIGPN4Iamk1u-2" value="+Seq&#xa;+회사&#xa;+이름&#xa;+부서&#xa;+직함&#xa;+E-Mail 1&#xa;+E-Mail 2&#xa;+전화번호(사무실)&#xa;+핸드폰&#xa;+국내/국외&#xa;+메일수신&#xa;+리봇계정 여부&#xa;+비고&#xa;+사용여부&#xa;+국가&#xa;+도시&#xa;+등록일&#xa;+등록자&#xa;+수정일&#xa;+수정자&#xa;&#xa;" style="align=left;strokeColor=none;fillColor=none;spacingLeft=4;fontSize=12;verticalAlign=top;resizable=0;rotatable=0;part=1;fontFamily=KB금융 본문체;" parent="u9pyTOhQtIGPN4Iamk1u-1" vertex="1">
          <mxGeometry y="30" width="160" height="300" as="geometry" />
        </mxCell>
        <mxCell id="u9pyTOhQtIGPN4Iamk1u-3" value="Rebot" style="swimlane;childLayout=stackLayout;horizontal=1;startSize=30;horizontalStack=0;fillColor=#008cff;fontColor=#FFFFFF;rounded=1;fontSize=14;fontStyle=0;strokeWidth=2;resizeParent=0;resizeLast=1;shadow=0;dashed=0;align=center;fontFamily=KB금융 본문체;" parent="1" vertex="1">
          <mxGeometry x="619" y="760" width="160" height="110" as="geometry" />
        </mxCell>
        <mxCell id="u9pyTOhQtIGPN4Iamk1u-4" value="+Seq&#xa;+계정&#xa;+등록일&#xa;+상태" style="align=left;strokeColor=none;fillColor=none;spacingLeft=4;fontSize=12;verticalAlign=top;resizable=0;rotatable=0;part=1;fontFamily=KB금융 본문체;" parent="u9pyTOhQtIGPN4Iamk1u-3" vertex="1">
          <mxGeometry y="30" width="160" height="80" as="geometry" />
        </mxCell>
        <mxCell id="u9pyTOhQtIGPN4Iamk1u-5" value="" style="edgeStyle=orthogonalEdgeStyle;rounded=0;orthogonalLoop=1;jettySize=auto;html=1;endArrow=block;endFill=0;fontFamily=KB금융 본문체;" parent="1" source="u9pyTOhQtIGPN4Iamk1u-2" target="u9pyTOhQtIGPN4Iamk1u-4" edge="1">
          <mxGeometry relative="1" as="geometry">
            <Array as="points">
              <mxPoint x="570" y="830" />
              <mxPoint x="570" y="830" />
            </Array>
          </mxGeometry>
        </mxCell>
        <mxCell id="u9pyTOhQtIGPN4Iamk1u-10" value="" style="edgeStyle=orthogonalEdgeStyle;rounded=0;orthogonalLoop=1;jettySize=auto;html=1;endArrow=block;endFill=0;fontFamily=KB금융 본문체;" parent="1" source="u9pyTOhQtIGPN4Iamk1u-2" target="u9pyTOhQtIGPN4Iamk1u-7" edge="1">
          <mxGeometry relative="1" as="geometry">
            <Array as="points">
              <mxPoint x="580" y="960" />
              <mxPoint x="580" y="960" />
            </Array>
          </mxGeometry>
        </mxCell>
        <mxCell id="u9pyTOhQtIGPN4Iamk1u-6" value="Mail 수신" style="swimlane;childLayout=stackLayout;horizontal=1;startSize=30;horizontalStack=0;fillColor=#008cff;fontColor=#FFFFFF;rounded=1;fontSize=14;fontStyle=0;strokeWidth=2;resizeParent=0;resizeLast=1;shadow=0;dashed=0;align=center;fontFamily=KB금융 본문체;" parent="1" vertex="1">
          <mxGeometry x="626" y="890" width="160" height="110" as="geometry" />
        </mxCell>
        <mxCell id="u9pyTOhQtIGPN4Iamk1u-7" value="+Seq&#xa;+애널리스트 ID&#xa;+등록일" style="align=left;strokeColor=none;fillColor=none;spacingLeft=4;fontSize=12;verticalAlign=top;resizable=0;rotatable=0;part=1;fontFamily=KB금융 본문체;" parent="u9pyTOhQtIGPN4Iamk1u-6" vertex="1">
          <mxGeometry y="30" width="160" height="80" as="geometry" />
        </mxCell>
      </root>
    </mxGraphModel>
  </diagram>
  <diagram name="고객수정" id="ZaNCwguw-Qjpi8KluwiY">
    <mxGraphModel dx="2591" dy="833" grid="1" gridSize="10" guides="1" tooltips="1" connect="1" arrows="1" fold="1" page="1" pageScale="1" pageWidth="1169" pageHeight="827" background="#ffffff" math="0" shadow="0">
      <root>
        <mxCell id="3iPOO88pED_i1hXO8RKq-0" />
        <mxCell id="3iPOO88pED_i1hXO8RKq-1" parent="3iPOO88pED_i1hXO8RKq-0" />
        <mxCell id="JXKtwf-2G7ctp7o28rne-0" value="" style="rounded=0;html=1;jettySize=auto;orthogonalLoop=1;fontSize=11;endArrow=block;endFill=0;endSize=8;strokeWidth=1;shadow=0;labelBackgroundColor=none;edgeStyle=orthogonalEdgeStyle;fontFamily=KB금융 본문체;" parent="3iPOO88pED_i1hXO8RKq-1" source="JXKtwf-2G7ctp7o28rne-1" target="J2STn4q1-Yk3dA05fcx6-2" edge="1">
          <mxGeometry relative="1" as="geometry">
            <mxPoint x="-590" y="210" as="targetPoint" />
          </mxGeometry>
        </mxCell>
        <mxCell id="JXKtwf-2G7ctp7o28rne-1" value="고객 수정" style="rounded=1;whiteSpace=wrap;html=1;fontSize=12;glass=0;strokeWidth=1;shadow=0;fontFamily=KB금융 본문체;" parent="3iPOO88pED_i1hXO8RKq-1" vertex="1">
          <mxGeometry x="-1100" y="150" width="120" height="40" as="geometry" />
        </mxCell>
        <mxCell id="k7F-1ONBAnHYL3OTYxIn-27" value="No" style="edgeStyle=orthogonalEdgeStyle;rounded=0;orthogonalLoop=1;jettySize=auto;html=1;endArrow=block;endFill=0;entryX=0.5;entryY=0;entryDx=0;entryDy=0;exitX=1;exitY=0.5;exitDx=0;exitDy=0;fontFamily=KB금융 본문체;" parent="3iPOO88pED_i1hXO8RKq-1" source="J2STn4q1-Yk3dA05fcx6-27" target="k7F-1ONBAnHYL3OTYxIn-25" edge="1">
          <mxGeometry x="-0.1111" y="10" relative="1" as="geometry">
            <mxPoint x="-200" y="620" as="targetPoint" />
            <mxPoint x="-275" y="640" as="sourcePoint" />
            <Array as="points">
              <mxPoint x="-410" y="470" />
              <mxPoint x="-410" y="620" />
              <mxPoint x="-350" y="620" />
            </Array>
            <mxPoint as="offset" />
          </mxGeometry>
        </mxCell>
        <mxCell id="k7F-1ONBAnHYL3OTYxIn-25" value="리스트" style="rounded=1;whiteSpace=wrap;html=1;fontSize=12;glass=0;strokeWidth=1;shadow=0;fontFamily=KB금융 본문체;" parent="3iPOO88pED_i1hXO8RKq-1" vertex="1">
          <mxGeometry x="-410" y="700" width="120" height="40" as="geometry" />
        </mxCell>
        <mxCell id="40B3on4zbdBMJRjM3Qo3-4" value="No" style="edgeStyle=orthogonalEdgeStyle;rounded=0;orthogonalLoop=1;jettySize=auto;html=1;endArrow=block;endFill=0;entryX=0;entryY=0.5;entryDx=0;entryDy=0;exitX=1;exitY=0.5;exitDx=0;exitDy=0;fontFamily=KB금융 본문체;" parent="3iPOO88pED_i1hXO8RKq-1" source="nDSxVtSnVKZqBvAi5meY-0" target="40B3on4zbdBMJRjM3Qo3-8" edge="1">
          <mxGeometry x="-0.25" y="10" relative="1" as="geometry">
            <mxPoint x="-200" y="470" as="targetPoint" />
            <mxPoint x="-270" y="490" as="sourcePoint" />
            <mxPoint as="offset" />
          </mxGeometry>
        </mxCell>
        <mxCell id="40B3on4zbdBMJRjM3Qo3-8" value="기존 등록자에게&lt;br&gt;수정내용 알림" style="rounded=1;whiteSpace=wrap;html=1;fontSize=12;glass=0;strokeWidth=1;shadow=0;fontFamily=KB금융 본문체;" parent="3iPOO88pED_i1hXO8RKq-1" vertex="1">
          <mxGeometry x="-150" y="360" width="120" height="40" as="geometry" />
        </mxCell>
        <mxCell id="nDSxVtSnVKZqBvAi5meY-7" value="Yes" style="edgeStyle=orthogonalEdgeStyle;rounded=0;orthogonalLoop=1;jettySize=auto;html=1;endArrow=block;endFill=0;exitX=0.5;exitY=1;exitDx=0;exitDy=0;fontFamily=KB금융 본문체;" parent="3iPOO88pED_i1hXO8RKq-1" source="nDSxVtSnVKZqBvAi5meY-0" target="nDSxVtSnVKZqBvAi5meY-3" edge="1">
          <mxGeometry x="-0.1429" y="-15" relative="1" as="geometry">
            <Array as="points">
              <mxPoint x="-320" y="460" />
              <mxPoint x="-320" y="460" />
            </Array>
            <mxPoint as="offset" />
          </mxGeometry>
        </mxCell>
        <mxCell id="nDSxVtSnVKZqBvAi5meY-0" value="확인했는가?" style="rhombus;whiteSpace=wrap;html=1;shadow=0;fontFamily=KB금융 본문체;fontSize=12;align=center;strokeWidth=1;spacing=6;spacingTop=-4;" parent="3iPOO88pED_i1hXO8RKq-1" vertex="1">
          <mxGeometry x="-370" y="340" width="100" height="80" as="geometry" />
        </mxCell>
        <mxCell id="nDSxVtSnVKZqBvAi5meY-3" value="변경내용 확인&amp;nbsp;&amp;nbsp;" style="rounded=0;whiteSpace=wrap;html=1;fontFamily=KB금융 본문체;" parent="3iPOO88pED_i1hXO8RKq-1" vertex="1">
          <mxGeometry x="-375" y="504" width="110" height="40" as="geometry" />
        </mxCell>
        <mxCell id="Op7ALS856ebiGSweNcYS-0" value="&lt;h1&gt;고객 수정&lt;/h1&gt;&lt;div&gt;1. 고객 정보 수정&lt;/div&gt;&lt;div&gt;2. 기존 고객정보 등록자와 다른 사람이 변경시 변경내용 알림처리&lt;/div&gt;&lt;div&gt;3. 퇴사/이직시 자동비활성화 처리&lt;/div&gt;" style="text;html=1;strokeColor=#000000;fillColor=none;spacing=5;spacingTop=-20;whiteSpace=wrap;overflow=hidden;rounded=0;fontFamily=KB금융 본문체;" parent="3iPOO88pED_i1hXO8RKq-1" vertex="1">
          <mxGeometry x="-234" y="30" width="204" height="120" as="geometry" />
        </mxCell>
        <mxCell id="J2STn4q1-Yk3dA05fcx6-4" value="No" style="edgeStyle=orthogonalEdgeStyle;rounded=0;orthogonalLoop=1;jettySize=auto;html=1;endArrow=block;endFill=0;fontFamily=KB금융 본문체;" parent="3iPOO88pED_i1hXO8RKq-1" source="J2STn4q1-Yk3dA05fcx6-2" target="J2STn4q1-Yk3dA05fcx6-3" edge="1">
          <mxGeometry x="0.2" y="20" relative="1" as="geometry">
            <mxPoint as="offset" />
          </mxGeometry>
        </mxCell>
        <mxCell id="J2STn4q1-Yk3dA05fcx6-9" value="Yes" style="edgeStyle=orthogonalEdgeStyle;rounded=0;orthogonalLoop=1;jettySize=auto;html=1;endArrow=block;endFill=0;fontFamily=KB금융 본문체;" parent="3iPOO88pED_i1hXO8RKq-1" source="J2STn4q1-Yk3dA05fcx6-2" target="J2STn4q1-Yk3dA05fcx6-8" edge="1">
          <mxGeometry y="20" relative="1" as="geometry">
            <mxPoint as="offset" />
          </mxGeometry>
        </mxCell>
        <mxCell id="J2STn4q1-Yk3dA05fcx6-2" value="수정자가 &lt;br&gt;기존 등록자와&amp;nbsp;&lt;br&gt;같은 사람인가?" style="rhombus;whiteSpace=wrap;html=1;shadow=0;fontFamily=KB금융 본문체;fontSize=12;align=center;strokeWidth=1;spacing=6;spacingTop=-4;" parent="3iPOO88pED_i1hXO8RKq-1" vertex="1">
          <mxGeometry x="-1100" y="240" width="120" height="100" as="geometry" />
        </mxCell>
        <mxCell id="J2STn4q1-Yk3dA05fcx6-7" value="No" style="edgeStyle=orthogonalEdgeStyle;rounded=0;orthogonalLoop=1;jettySize=auto;html=1;endArrow=block;endFill=0;entryX=0.5;entryY=1;entryDx=0;entryDy=0;fontFamily=KB금융 본문체;" parent="3iPOO88pED_i1hXO8RKq-1" source="J2STn4q1-Yk3dA05fcx6-3" target="J2STn4q1-Yk3dA05fcx6-5" edge="1">
          <mxGeometry x="-0.3" y="10" relative="1" as="geometry">
            <mxPoint x="-750" y="290" as="targetPoint" />
            <mxPoint as="offset" />
          </mxGeometry>
        </mxCell>
        <mxCell id="J2STn4q1-Yk3dA05fcx6-13" value="Yes" style="edgeStyle=orthogonalEdgeStyle;rounded=0;orthogonalLoop=1;jettySize=auto;html=1;endArrow=block;endFill=0;fontFamily=KB금융 본문체;" parent="3iPOO88pED_i1hXO8RKq-1" source="J2STn4q1-Yk3dA05fcx6-3" edge="1">
          <mxGeometry x="-0.2444" y="-10" relative="1" as="geometry">
            <mxPoint x="-1040" y="400" as="targetPoint" />
            <Array as="points">
              <mxPoint x="-880" y="350" />
              <mxPoint x="-1040" y="350" />
            </Array>
            <mxPoint as="offset" />
          </mxGeometry>
        </mxCell>
        <mxCell id="J2STn4q1-Yk3dA05fcx6-3" value="수정하겠는가?" style="rhombus;whiteSpace=wrap;html=1;shadow=0;fontFamily=KB금융 본문체;fontSize=12;align=center;strokeWidth=1;spacing=6;spacingTop=-4;" parent="3iPOO88pED_i1hXO8RKq-1" vertex="1">
          <mxGeometry x="-930" y="245" width="100" height="90" as="geometry" />
        </mxCell>
        <mxCell id="J2STn4q1-Yk3dA05fcx6-5" value="리스트" style="rounded=1;whiteSpace=wrap;html=1;fontSize=12;glass=0;strokeWidth=1;shadow=0;fontFamily=KB금융 본문체;" parent="3iPOO88pED_i1hXO8RKq-1" vertex="1">
          <mxGeometry x="-790" y="150" width="120" height="40" as="geometry" />
        </mxCell>
        <mxCell id="J2STn4q1-Yk3dA05fcx6-15" value="No" style="edgeStyle=orthogonalEdgeStyle;rounded=0;orthogonalLoop=1;jettySize=auto;html=1;endArrow=block;endFill=0;fontFamily=KB금융 본문체;" parent="3iPOO88pED_i1hXO8RKq-1" source="J2STn4q1-Yk3dA05fcx6-8" target="J2STn4q1-Yk3dA05fcx6-14" edge="1">
          <mxGeometry y="10" relative="1" as="geometry">
            <mxPoint as="offset" />
          </mxGeometry>
        </mxCell>
        <mxCell id="J2STn4q1-Yk3dA05fcx6-8" value="단순&lt;br&gt;수정인가?" style="rhombus;whiteSpace=wrap;html=1;shadow=0;fontFamily=KB금융 본문체;fontSize=12;align=center;strokeWidth=1;spacing=6;spacingTop=-4;" parent="3iPOO88pED_i1hXO8RKq-1" vertex="1">
          <mxGeometry x="-1090" y="400" width="100" height="80" as="geometry" />
        </mxCell>
        <mxCell id="J2STn4q1-Yk3dA05fcx6-10" value="Yes" style="rounded=0;html=1;jettySize=auto;orthogonalLoop=1;fontSize=11;endArrow=block;endFill=0;endSize=8;strokeWidth=1;shadow=0;labelBackgroundColor=none;edgeStyle=orthogonalEdgeStyle;fontFamily=KB금융 본문체;" parent="3iPOO88pED_i1hXO8RKq-1" source="J2STn4q1-Yk3dA05fcx6-8" target="J2STn4q1-Yk3dA05fcx6-11" edge="1">
          <mxGeometry x="0.2" y="20" relative="1" as="geometry">
            <mxPoint as="offset" />
            <mxPoint x="-1040" y="540" as="targetPoint" />
            <mxPoint x="-1040" y="510" as="sourcePoint" />
          </mxGeometry>
        </mxCell>
        <mxCell id="J2STn4q1-Yk3dA05fcx6-24" value="" style="edgeStyle=orthogonalEdgeStyle;rounded=0;orthogonalLoop=1;jettySize=auto;html=1;endArrow=block;endFill=0;exitX=0.5;exitY=1;exitDx=0;exitDy=0;entryX=0.5;entryY=0;entryDx=0;entryDy=0;fontFamily=KB금융 본문체;" parent="3iPOO88pED_i1hXO8RKq-1" source="J2STn4q1-Yk3dA05fcx6-11" target="J2STn4q1-Yk3dA05fcx6-22" edge="1">
          <mxGeometry relative="1" as="geometry">
            <Array as="points">
              <mxPoint x="-1040" y="720" />
              <mxPoint x="-640" y="720" />
              <mxPoint x="-640" y="170" />
              <mxPoint x="-540" y="170" />
            </Array>
          </mxGeometry>
        </mxCell>
        <mxCell id="J2STn4q1-Yk3dA05fcx6-11" value="수정" style="rounded=0;whiteSpace=wrap;html=1;fontFamily=KB금융 본문체;" parent="3iPOO88pED_i1hXO8RKq-1" vertex="1">
          <mxGeometry x="-1095" y="600" width="110" height="40" as="geometry" />
        </mxCell>
        <mxCell id="J2STn4q1-Yk3dA05fcx6-19" value="No" style="edgeStyle=orthogonalEdgeStyle;rounded=0;orthogonalLoop=1;jettySize=auto;html=1;endArrow=block;endFill=0;entryX=1;entryY=0.5;entryDx=0;entryDy=0;exitX=1;exitY=0.5;exitDx=0;exitDy=0;fontFamily=KB금융 본문체;" parent="3iPOO88pED_i1hXO8RKq-1" source="J2STn4q1-Yk3dA05fcx6-14" target="J2STn4q1-Yk3dA05fcx6-11" edge="1">
          <mxGeometry x="-0.4286" y="-10" relative="1" as="geometry">
            <mxPoint x="-880" y="560" as="targetPoint" />
            <Array as="points">
              <mxPoint x="-810" y="440" />
              <mxPoint x="-810" y="620" />
            </Array>
            <mxPoint as="offset" />
          </mxGeometry>
        </mxCell>
        <mxCell id="J2STn4q1-Yk3dA05fcx6-21" value="Yes" style="edgeStyle=orthogonalEdgeStyle;rounded=0;orthogonalLoop=1;jettySize=auto;html=1;endArrow=block;endFill=0;entryX=0;entryY=0.5;entryDx=0;entryDy=0;exitX=0.5;exitY=0;exitDx=0;exitDy=0;fontFamily=KB금융 본문체;" parent="3iPOO88pED_i1hXO8RKq-1" source="J2STn4q1-Yk3dA05fcx6-14" target="J2STn4q1-Yk3dA05fcx6-20" edge="1">
          <mxGeometry x="0.1892" y="10" relative="1" as="geometry">
            <mxPoint as="offset" />
          </mxGeometry>
        </mxCell>
        <mxCell id="J2STn4q1-Yk3dA05fcx6-14" value="이직인가?" style="rhombus;whiteSpace=wrap;html=1;shadow=0;fontFamily=KB금융 본문체;fontSize=12;align=center;strokeWidth=1;spacing=6;spacingTop=-4;" parent="3iPOO88pED_i1hXO8RKq-1" vertex="1">
          <mxGeometry x="-930" y="400" width="100" height="80" as="geometry" />
        </mxCell>
        <mxCell id="J2STn4q1-Yk3dA05fcx6-20" value="정보수정(비활성)&lt;br&gt;" style="rounded=0;whiteSpace=wrap;html=1;fontFamily=KB금융 본문체;" parent="3iPOO88pED_i1hXO8RKq-1" vertex="1">
          <mxGeometry x="-780" y="350" width="110" height="40" as="geometry" />
        </mxCell>
        <mxCell id="J2STn4q1-Yk3dA05fcx6-26" value="" style="edgeStyle=orthogonalEdgeStyle;rounded=0;orthogonalLoop=1;jettySize=auto;html=1;endArrow=block;endFill=0;entryX=0;entryY=0.5;entryDx=0;entryDy=0;fontFamily=KB금융 본문체;" parent="3iPOO88pED_i1hXO8RKq-1" source="J2STn4q1-Yk3dA05fcx6-22" target="J2STn4q1-Yk3dA05fcx6-23" edge="1">
          <mxGeometry relative="1" as="geometry">
            <mxPoint x="-950" y="670" as="targetPoint" />
          </mxGeometry>
        </mxCell>
        <mxCell id="J2STn4q1-Yk3dA05fcx6-28" value="" style="edgeStyle=orthogonalEdgeStyle;rounded=0;orthogonalLoop=1;jettySize=auto;html=1;endArrow=block;endFill=0;fontFamily=KB금융 본문체;" parent="3iPOO88pED_i1hXO8RKq-1" source="J2STn4q1-Yk3dA05fcx6-22" target="J2STn4q1-Yk3dA05fcx6-27" edge="1">
          <mxGeometry relative="1" as="geometry" />
        </mxCell>
        <mxCell id="J2STn4q1-Yk3dA05fcx6-22" value="수정자가 &lt;br&gt;기존 등록자와&amp;nbsp;&lt;br&gt;같은 사람인가?" style="rhombus;whiteSpace=wrap;html=1;shadow=0;fontFamily=KB금융 본문체;fontSize=12;align=center;strokeWidth=1;spacing=6;spacingTop=-4;" parent="3iPOO88pED_i1hXO8RKq-1" vertex="1">
          <mxGeometry x="-600" y="200" width="120" height="100" as="geometry" />
        </mxCell>
        <mxCell id="J2STn4q1-Yk3dA05fcx6-31" value="" style="edgeStyle=orthogonalEdgeStyle;rounded=0;orthogonalLoop=1;jettySize=auto;html=1;endArrow=block;endFill=0;fontFamily=KB금융 본문체;" parent="3iPOO88pED_i1hXO8RKq-1" source="J2STn4q1-Yk3dA05fcx6-23" target="nDSxVtSnVKZqBvAi5meY-0" edge="1">
          <mxGeometry relative="1" as="geometry" />
        </mxCell>
        <mxCell id="J2STn4q1-Yk3dA05fcx6-23" value="기존 등록자에게&lt;br&gt;수정내용 알림" style="rounded=1;whiteSpace=wrap;html=1;fontSize=12;glass=0;strokeWidth=1;shadow=0;fontFamily=KB금융 본문체;" parent="3iPOO88pED_i1hXO8RKq-1" vertex="1">
          <mxGeometry x="-380" y="230" width="120" height="40" as="geometry" />
        </mxCell>
        <mxCell id="J2STn4q1-Yk3dA05fcx6-30" value="Yes" style="edgeStyle=orthogonalEdgeStyle;rounded=0;orthogonalLoop=1;jettySize=auto;html=1;endArrow=block;endFill=0;fontFamily=KB금융 본문체;" parent="3iPOO88pED_i1hXO8RKq-1" source="J2STn4q1-Yk3dA05fcx6-27" target="J2STn4q1-Yk3dA05fcx6-29" edge="1">
          <mxGeometry y="20" relative="1" as="geometry">
            <Array as="points">
              <mxPoint x="-540" y="610" />
              <mxPoint x="-540" y="610" />
            </Array>
            <mxPoint as="offset" />
          </mxGeometry>
        </mxCell>
        <mxCell id="J2STn4q1-Yk3dA05fcx6-27" value="신규 &lt;br&gt;등록할 것인가?" style="rhombus;whiteSpace=wrap;html=1;shadow=0;fontFamily=KB금융 본문체;fontSize=12;align=center;strokeWidth=1;spacing=6;spacingTop=-4;" parent="3iPOO88pED_i1hXO8RKq-1" vertex="1">
          <mxGeometry x="-595" y="420" width="110" height="100" as="geometry" />
        </mxCell>
        <mxCell id="J2STn4q1-Yk3dA05fcx6-29" value="고객등록" style="rounded=1;whiteSpace=wrap;html=1;fontSize=12;glass=0;strokeWidth=1;shadow=0;fontFamily=KB금융 본문체;" parent="3iPOO88pED_i1hXO8RKq-1" vertex="1">
          <mxGeometry x="-600" y="700" width="120" height="40" as="geometry" />
        </mxCell>
      </root>
    </mxGraphModel>
  </diagram>
  <diagram name="리봇계정확인" id="k75S4BzpsNL7mmpZO-Xg">
    <mxGraphModel dx="1422" dy="833" grid="1" gridSize="10" guides="1" tooltips="1" connect="1" arrows="1" fold="1" page="1" pageScale="1" pageWidth="827" pageHeight="1169" math="0" shadow="0">
      <root>
        <mxCell id="LDK9crnApw_xUN4OTkNv-0" />
        <mxCell id="LDK9crnApw_xUN4OTkNv-1" parent="LDK9crnApw_xUN4OTkNv-0" />
        <mxCell id="LDK9crnApw_xUN4OTkNv-2" value="" style="rounded=0;html=1;jettySize=auto;orthogonalLoop=1;fontSize=11;endArrow=block;endFill=0;endSize=8;strokeWidth=1;shadow=0;labelBackgroundColor=none;edgeStyle=orthogonalEdgeStyle;fontFamily=KB금융 본문체;" parent="LDK9crnApw_xUN4OTkNv-1" source="LDK9crnApw_xUN4OTkNv-3" target="LDK9crnApw_xUN4OTkNv-5" edge="1">
          <mxGeometry relative="1" as="geometry" />
        </mxCell>
        <mxCell id="LDK9crnApw_xUN4OTkNv-3" value="리봇 계정 확인" style="rounded=1;whiteSpace=wrap;html=1;fontSize=12;glass=0;strokeWidth=1;shadow=0;fontFamily=KB금융 본문체;" parent="LDK9crnApw_xUN4OTkNv-1" vertex="1">
          <mxGeometry x="160" y="80" width="120" height="40" as="geometry" />
        </mxCell>
        <mxCell id="9KzewAICb9PlspTgySa3-2" value="No" style="edgeStyle=orthogonalEdgeStyle;rounded=0;orthogonalLoop=1;jettySize=auto;html=1;endArrow=block;endFill=0;entryX=0;entryY=0.5;entryDx=0;entryDy=0;fontFamily=KB금융 본문체;" parent="LDK9crnApw_xUN4OTkNv-1" source="LDK9crnApw_xUN4OTkNv-5" target="q5R2aOCU8wI9fLKJ9hd3-0" edge="1">
          <mxGeometry y="20" relative="1" as="geometry">
            <mxPoint x="350" y="260" as="targetPoint" />
            <mxPoint as="offset" />
          </mxGeometry>
        </mxCell>
        <mxCell id="9KzewAICb9PlspTgySa3-7" value="Yes" style="edgeStyle=orthogonalEdgeStyle;rounded=0;orthogonalLoop=1;jettySize=auto;html=1;endArrow=block;endFill=0;entryX=0;entryY=0.5;entryDx=0;entryDy=0;fontFamily=KB금융 본문체;" parent="LDK9crnApw_xUN4OTkNv-1" source="LDK9crnApw_xUN4OTkNv-5" target="LDK9crnApw_xUN4OTkNv-3" edge="1">
          <mxGeometry x="-0.5909" y="-50" relative="1" as="geometry">
            <mxPoint x="220" y="380" as="targetPoint" />
            <Array as="points">
              <mxPoint x="220" y="370" />
              <mxPoint x="140" y="370" />
              <mxPoint x="140" y="100" />
            </Array>
            <mxPoint as="offset" />
          </mxGeometry>
        </mxCell>
        <mxCell id="LDK9crnApw_xUN4OTkNv-5" value="이용하고&amp;nbsp;&lt;br&gt;있는가?" style="rhombus;whiteSpace=wrap;html=1;shadow=0;fontFamily=KB금융 본문체;fontSize=12;align=center;strokeWidth=1;spacing=6;spacingTop=-4;" parent="LDK9crnApw_xUN4OTkNv-1" vertex="1">
          <mxGeometry x="170" y="220" width="100" height="80" as="geometry" />
        </mxCell>
        <mxCell id="9KzewAICb9PlspTgySa3-5" value="" style="edgeStyle=orthogonalEdgeStyle;rounded=0;orthogonalLoop=1;jettySize=auto;html=1;endArrow=block;endFill=0;fontFamily=KB금융 본문체;" parent="LDK9crnApw_xUN4OTkNv-1" source="q5R2aOCU8wI9fLKJ9hd3-0" target="q5R2aOCU8wI9fLKJ9hd3-1" edge="1">
          <mxGeometry relative="1" as="geometry" />
        </mxCell>
        <mxCell id="q5R2aOCU8wI9fLKJ9hd3-0" value="휴면계정 처리" style="rounded=0;whiteSpace=wrap;html=1;fontFamily=KB금융 본문체;" parent="LDK9crnApw_xUN4OTkNv-1" vertex="1">
          <mxGeometry x="330" y="240" width="110" height="40" as="geometry" />
        </mxCell>
        <mxCell id="q5R2aOCU8wI9fLKJ9hd3-1" value="세일즈 담당자 알림" style="rounded=0;whiteSpace=wrap;html=1;fontFamily=KB금융 본문체;" parent="LDK9crnApw_xUN4OTkNv-1" vertex="1">
          <mxGeometry x="330" y="350" width="110" height="40" as="geometry" />
        </mxCell>
      </root>
    </mxGraphModel>
  </diagram>
  <diagram id="OoM2W2tOEjvWM-UJuhF8" name="Call Report">
    <mxGraphModel dx="1422" dy="833" grid="1" gridSize="10" guides="1" tooltips="1" connect="1" arrows="1" fold="1" page="1" pageScale="1" pageWidth="1169" pageHeight="827" math="0" shadow="0">
      <root>
        <mxCell id="SnCyjbGiZoCVtqMJgTue-0" />
        <mxCell id="SnCyjbGiZoCVtqMJgTue-1" parent="SnCyjbGiZoCVtqMJgTue-0" />
        <mxCell id="B5EQK4Y_fSDVit45J5pa-25" value="" style="edgeStyle=orthogonalEdgeStyle;rounded=0;orthogonalLoop=1;jettySize=auto;html=1;endArrow=block;endFill=0;fontFamily=KB금융 본문체;" parent="SnCyjbGiZoCVtqMJgTue-1" source="k3n5E_1Y_Eq-a9m6774--0" target="B5EQK4Y_fSDVit45J5pa-0" edge="1">
          <mxGeometry relative="1" as="geometry" />
        </mxCell>
        <mxCell id="k3n5E_1Y_Eq-a9m6774--0" value="&lt;p style=&quot;line-height: 120%&quot;&gt;Call Report 등록&lt;/p&gt;" style="rounded=1;whiteSpace=wrap;html=1;fontSize=12;glass=0;strokeWidth=1;shadow=0;fontFamily=KB금융 본문체;" parent="SnCyjbGiZoCVtqMJgTue-1" vertex="1">
          <mxGeometry x="160" y="50" width="120" height="40" as="geometry" />
        </mxCell>
        <mxCell id="B5EQK4Y_fSDVit45J5pa-3" value="" style="edgeStyle=orthogonalEdgeStyle;rounded=0;orthogonalLoop=1;jettySize=auto;html=1;endArrow=block;endFill=0;fontFamily=KB금융 본문체;" parent="SnCyjbGiZoCVtqMJgTue-1" source="mY0PxKFrAmzECkvM_8c5-0" target="B5EQK4Y_fSDVit45J5pa-2" edge="1">
          <mxGeometry relative="1" as="geometry" />
        </mxCell>
        <mxCell id="mY0PxKFrAmzECkvM_8c5-0" value="직접보고 &lt;br&gt;하는가?" style="rhombus;whiteSpace=wrap;html=1;shadow=0;fontFamily=KB금융 본문체;fontSize=12;align=center;strokeWidth=1;spacing=6;spacingTop=-4;" parent="SnCyjbGiZoCVtqMJgTue-1" vertex="1">
          <mxGeometry x="170" y="360" width="100" height="80" as="geometry" />
        </mxCell>
        <mxCell id="B5EQK4Y_fSDVit45J5pa-1" value="" style="edgeStyle=orthogonalEdgeStyle;rounded=0;orthogonalLoop=1;jettySize=auto;html=1;endArrow=block;endFill=0;entryX=0.5;entryY=0;entryDx=0;entryDy=0;fontFamily=KB금융 본문체;" parent="SnCyjbGiZoCVtqMJgTue-1" source="B5EQK4Y_fSDVit45J5pa-0" target="B5EQK4Y_fSDVit45J5pa-24" edge="1">
          <mxGeometry relative="1" as="geometry" />
        </mxCell>
        <mxCell id="B5EQK4Y_fSDVit45J5pa-0" value="등록" style="rounded=0;whiteSpace=wrap;html=1;fontFamily=KB금융 본문체;" parent="SnCyjbGiZoCVtqMJgTue-1" vertex="1">
          <mxGeometry x="172" y="155" width="96" height="30" as="geometry" />
        </mxCell>
        <mxCell id="B5EQK4Y_fSDVit45J5pa-6" value="" style="edgeStyle=orthogonalEdgeStyle;rounded=0;orthogonalLoop=1;jettySize=auto;html=1;endArrow=block;endFill=0;entryX=0.5;entryY=0;entryDx=0;entryDy=0;fontFamily=KB금융 본문체;" parent="SnCyjbGiZoCVtqMJgTue-1" source="B5EQK4Y_fSDVit45J5pa-2" target="B5EQK4Y_fSDVit45J5pa-8" edge="1">
          <mxGeometry relative="1" as="geometry">
            <mxPoint x="219.99999999999977" y="559.9999999999998" as="targetPoint" />
          </mxGeometry>
        </mxCell>
        <mxCell id="B5EQK4Y_fSDVit45J5pa-2" value="대상자 선택" style="rounded=0;whiteSpace=wrap;html=1;fontFamily=KB금융 본문체;" parent="SnCyjbGiZoCVtqMJgTue-1" vertex="1">
          <mxGeometry x="172" y="490" width="96" height="30" as="geometry" />
        </mxCell>
        <mxCell id="B5EQK4Y_fSDVit45J5pa-8" value="Push 전송" style="rounded=0;whiteSpace=wrap;html=1;fontFamily=KB금융 본문체;" parent="SnCyjbGiZoCVtqMJgTue-1" vertex="1">
          <mxGeometry x="172" y="630" width="96" height="30" as="geometry" />
        </mxCell>
        <mxCell id="B5EQK4Y_fSDVit45J5pa-17" value="Yes" style="edgeStyle=orthogonalEdgeStyle;rounded=0;orthogonalLoop=1;jettySize=auto;html=1;endArrow=block;endFill=0;entryX=0;entryY=0.5;entryDx=0;entryDy=0;fontFamily=KB금융 본문체;" parent="SnCyjbGiZoCVtqMJgTue-1" target="B5EQK4Y_fSDVit45J5pa-16" edge="1">
          <mxGeometry x="1" y="-28" relative="1" as="geometry">
            <mxPoint x="350" y="270" as="targetPoint" />
            <mxPoint x="269.9999999999998" y="270" as="sourcePoint" />
            <Array as="points">
              <mxPoint x="340" y="270" />
              <mxPoint x="340" y="270" />
            </Array>
            <mxPoint x="-19" y="8" as="offset" />
          </mxGeometry>
        </mxCell>
        <mxCell id="B5EQK4Y_fSDVit45J5pa-19" value="" style="edgeStyle=orthogonalEdgeStyle;rounded=0;orthogonalLoop=1;jettySize=auto;html=1;endArrow=block;endFill=0;fontFamily=KB금융 본문체;" parent="SnCyjbGiZoCVtqMJgTue-1" source="B5EQK4Y_fSDVit45J5pa-16" target="B5EQK4Y_fSDVit45J5pa-18" edge="1">
          <mxGeometry relative="1" as="geometry" />
        </mxCell>
        <mxCell id="B5EQK4Y_fSDVit45J5pa-16" value="리서치 담당자 선택" style="rounded=0;whiteSpace=wrap;html=1;fontFamily=KB금융 본문체;" parent="SnCyjbGiZoCVtqMJgTue-1" vertex="1">
          <mxGeometry x="320" y="255" width="110" height="30" as="geometry" />
        </mxCell>
        <mxCell id="B5EQK4Y_fSDVit45J5pa-22" value="" style="edgeStyle=orthogonalEdgeStyle;rounded=0;orthogonalLoop=1;jettySize=auto;html=1;endArrow=block;endFill=0;entryX=0;entryY=0.5;entryDx=0;entryDy=0;fontFamily=KB금융 본문체;" parent="SnCyjbGiZoCVtqMJgTue-1" source="B5EQK4Y_fSDVit45J5pa-18" target="B5EQK4Y_fSDVit45J5pa-23" edge="1">
          <mxGeometry relative="1" as="geometry">
            <mxPoint x="680" y="270" as="targetPoint" />
          </mxGeometry>
        </mxCell>
        <mxCell id="B5EQK4Y_fSDVit45J5pa-18" value="업무요청&lt;br&gt;(세미나, 탐방, 리퀘스트, NDR)" style="rounded=0;whiteSpace=wrap;html=1;fontFamily=KB금융 본문체;" parent="SnCyjbGiZoCVtqMJgTue-1" vertex="1">
          <mxGeometry x="480" y="230" width="140" height="80" as="geometry" />
        </mxCell>
        <mxCell id="B5EQK4Y_fSDVit45J5pa-28" value="" style="edgeStyle=orthogonalEdgeStyle;rounded=0;orthogonalLoop=1;jettySize=auto;html=1;endArrow=block;endFill=0;exitX=0.5;exitY=1;exitDx=0;exitDy=0;fontFamily=KB금융 본문체;" parent="SnCyjbGiZoCVtqMJgTue-1" source="B5EQK4Y_fSDVit45J5pa-23" target="B5EQK4Y_fSDVit45J5pa-27" edge="1">
          <mxGeometry relative="1" as="geometry">
            <mxPoint x="745" y="290" as="sourcePoint" />
          </mxGeometry>
        </mxCell>
        <mxCell id="B5EQK4Y_fSDVit45J5pa-23" value="저장/Push 발송" style="rounded=0;whiteSpace=wrap;html=1;fontFamily=KB금융 본문체;" parent="SnCyjbGiZoCVtqMJgTue-1" vertex="1">
          <mxGeometry x="690" y="255" width="110" height="30" as="geometry" />
        </mxCell>
        <mxCell id="B5EQK4Y_fSDVit45J5pa-26" value="No" style="edgeStyle=orthogonalEdgeStyle;rounded=0;orthogonalLoop=1;jettySize=auto;html=1;endArrow=block;endFill=0;fontFamily=KB금융 본문체;" parent="SnCyjbGiZoCVtqMJgTue-1" source="B5EQK4Y_fSDVit45J5pa-24" target="mY0PxKFrAmzECkvM_8c5-0" edge="1">
          <mxGeometry x="0.2" y="20" relative="1" as="geometry">
            <mxPoint y="-1" as="offset" />
          </mxGeometry>
        </mxCell>
        <mxCell id="B5EQK4Y_fSDVit45J5pa-24" value="리서치&lt;br&gt;Request&lt;br&gt;&amp;nbsp;있는가?&amp;nbsp;" style="rhombus;whiteSpace=wrap;html=1;shadow=0;fontFamily=KB금융 본문체;fontSize=12;align=center;strokeWidth=1;spacing=6;spacingTop=-4;" parent="SnCyjbGiZoCVtqMJgTue-1" vertex="1">
          <mxGeometry x="170" y="230" width="100" height="80" as="geometry" />
        </mxCell>
        <mxCell id="B5EQK4Y_fSDVit45J5pa-31" value="" style="edgeStyle=orthogonalEdgeStyle;rounded=0;orthogonalLoop=1;jettySize=auto;html=1;endArrow=block;endFill=0;fontFamily=KB금융 본문체;" parent="SnCyjbGiZoCVtqMJgTue-1" source="B5EQK4Y_fSDVit45J5pa-27" target="B5EQK4Y_fSDVit45J5pa-30" edge="1">
          <mxGeometry relative="1" as="geometry" />
        </mxCell>
        <mxCell id="B5EQK4Y_fSDVit45J5pa-27" value="담당자 확인" style="rounded=0;whiteSpace=wrap;html=1;fontFamily=KB금융 본문체;" parent="SnCyjbGiZoCVtqMJgTue-1" vertex="1">
          <mxGeometry x="690" y="340" width="110" height="30" as="geometry" />
        </mxCell>
        <mxCell id="B5EQK4Y_fSDVit45J5pa-33" value="Yes" style="edgeStyle=orthogonalEdgeStyle;rounded=0;orthogonalLoop=1;jettySize=auto;html=1;endArrow=block;endFill=0;entryX=0.5;entryY=0;entryDx=0;entryDy=0;fontFamily=KB금융 본문체;" parent="SnCyjbGiZoCVtqMJgTue-1" source="B5EQK4Y_fSDVit45J5pa-30" target="B5EQK4Y_fSDVit45J5pa-32" edge="1">
          <mxGeometry x="-0.0714" y="15" relative="1" as="geometry">
            <mxPoint x="745" y="574" as="targetPoint" />
            <mxPoint as="offset" />
          </mxGeometry>
        </mxCell>
        <mxCell id="B5EQK4Y_fSDVit45J5pa-37" value="No" style="edgeStyle=orthogonalEdgeStyle;rounded=0;orthogonalLoop=1;jettySize=auto;html=1;endArrow=block;endFill=0;fontFamily=KB금융 본문체;" parent="SnCyjbGiZoCVtqMJgTue-1" source="B5EQK4Y_fSDVit45J5pa-30" target="B5EQK4Y_fSDVit45J5pa-36" edge="1">
          <mxGeometry x="-0.0667" y="-24" relative="1" as="geometry">
            <mxPoint as="offset" />
          </mxGeometry>
        </mxCell>
        <mxCell id="B5EQK4Y_fSDVit45J5pa-30" value="접수하겠는가?" style="rhombus;whiteSpace=wrap;html=1;shadow=0;fontFamily=KB금융 본문체;fontSize=12;align=center;strokeWidth=1;spacing=6;spacingTop=-4;" parent="SnCyjbGiZoCVtqMJgTue-1" vertex="1">
          <mxGeometry x="695" y="414" width="100" height="80" as="geometry" />
        </mxCell>
        <mxCell id="B5EQK4Y_fSDVit45J5pa-35" value="" style="edgeStyle=orthogonalEdgeStyle;rounded=0;orthogonalLoop=1;jettySize=auto;html=1;endArrow=block;endFill=0;entryX=0.479;entryY=0;entryDx=0;entryDy=0;entryPerimeter=0;fontFamily=KB금융 본문체;" parent="SnCyjbGiZoCVtqMJgTue-1" source="B5EQK4Y_fSDVit45J5pa-32" target="B5EQK4Y_fSDVit45J5pa-34" edge="1">
          <mxGeometry relative="1" as="geometry">
            <mxPoint x="745" y="660" as="targetPoint" />
          </mxGeometry>
        </mxCell>
        <mxCell id="B5EQK4Y_fSDVit45J5pa-32" value="업무등록(ARPS)" style="rounded=0;whiteSpace=wrap;html=1;fontFamily=KB금융 본문체;" parent="SnCyjbGiZoCVtqMJgTue-1" vertex="1">
          <mxGeometry x="690" y="550" width="110" height="30" as="geometry" />
        </mxCell>
        <mxCell id="B5EQK4Y_fSDVit45J5pa-34" value="세일지 담당자&lt;br&gt;Push 전송" style="rounded=0;whiteSpace=wrap;html=1;fontFamily=KB금융 본문체;" parent="SnCyjbGiZoCVtqMJgTue-1" vertex="1">
          <mxGeometry x="699" y="630" width="96" height="30" as="geometry" />
        </mxCell>
        <mxCell id="B5EQK4Y_fSDVit45J5pa-39" value="" style="edgeStyle=orthogonalEdgeStyle;rounded=0;orthogonalLoop=1;jettySize=auto;html=1;endArrow=block;endFill=0;entryX=0;entryY=0.5;entryDx=0;entryDy=0;fontFamily=KB금융 본문체;" parent="SnCyjbGiZoCVtqMJgTue-1" source="B5EQK4Y_fSDVit45J5pa-36" target="B5EQK4Y_fSDVit45J5pa-34" edge="1">
          <mxGeometry relative="1" as="geometry">
            <mxPoint x="565" y="549" as="targetPoint" />
            <Array as="points">
              <mxPoint x="565" y="645" />
            </Array>
          </mxGeometry>
        </mxCell>
        <mxCell id="B5EQK4Y_fSDVit45J5pa-36" value="사유등록" style="rounded=0;whiteSpace=wrap;html=1;fontFamily=KB금융 본문체;" parent="SnCyjbGiZoCVtqMJgTue-1" vertex="1">
          <mxGeometry x="510" y="439" width="110" height="30" as="geometry" />
        </mxCell>
        <mxCell id="B5EQK4Y_fSDVit45J5pa-44" value="등록" style="rounded=0;whiteSpace=wrap;html=1;dashed=1;dashPattern=1 4;fillColor=none;strokeColor=#FF0000;fontColor=#ffffff;strokeWidth=3;fontFamily=KB금융 본문체;" parent="SnCyjbGiZoCVtqMJgTue-1" vertex="1">
          <mxGeometry x="500" y="324" width="340" height="356" as="geometry" />
        </mxCell>
        <mxCell id="Dw0YmAoG7p8zQEdRf3Tp-0" value="Call Report" style="swimlane;childLayout=stackLayout;horizontal=1;startSize=30;horizontalStack=0;fillColor=#008cff;fontColor=#FFFFFF;rounded=1;fontSize=14;fontStyle=0;strokeWidth=2;resizeParent=0;resizeLast=1;shadow=0;dashed=0;align=center;fontFamily=KB금융 본문체;" parent="SnCyjbGiZoCVtqMJgTue-1" vertex="1">
          <mxGeometry x="900" y="255" width="160" height="330" as="geometry" />
        </mxCell>
        <mxCell id="Dw0YmAoG7p8zQEdRf3Tp-1" value="+Seq&#xa;+제목&#xa;+날짜&#xa;+시간&#xa;+고객(법인)&#xa;+고객명(ID)&#xa;+목적(ID)&#xa;+&#xa;+등록일&#xa;+등록자&#xa;+수정일&#xa;+수정자&#xa;&#xa;" style="align=left;strokeColor=none;fillColor=none;spacingLeft=4;fontSize=12;verticalAlign=top;resizable=0;rotatable=0;part=1;fontFamily=KB금융 본문체;" parent="Dw0YmAoG7p8zQEdRf3Tp-0" vertex="1">
          <mxGeometry y="30" width="160" height="300" as="geometry" />
        </mxCell>
      </root>
    </mxGraphModel>
  </diagram>
  <diagram name="Call Report의 복사본" id="K0Kd3IHvmQEPNo0RwN5J">
    <mxGraphModel dx="1422" dy="833" grid="1" gridSize="10" guides="1" tooltips="1" connect="1" arrows="1" fold="1" page="1" pageScale="1" pageWidth="1169" pageHeight="827" math="0" shadow="0">
      <root>
        <mxCell id="9GP7ec5j9Zek77Q9aWIa-0" />
        <mxCell id="9GP7ec5j9Zek77Q9aWIa-1" parent="9GP7ec5j9Zek77Q9aWIa-0" />
        <mxCell id="9GP7ec5j9Zek77Q9aWIa-30" value="등록" style="rounded=0;whiteSpace=wrap;html=1;dashed=1;dashPattern=1 4;fillColor=none;strokeColor=#FF0000;fontColor=#ffffff;strokeWidth=3;fontFamily=KB금융 본문체;" vertex="1" parent="9GP7ec5j9Zek77Q9aWIa-1">
          <mxGeometry x="420" y="430" width="350" height="378" as="geometry" />
        </mxCell>
        <mxCell id="9GP7ec5j9Zek77Q9aWIa-2" value="" style="edgeStyle=orthogonalEdgeStyle;rounded=0;orthogonalLoop=1;jettySize=auto;html=1;endArrow=block;endFill=0;entryX=0.5;entryY=0;entryDx=0;entryDy=0;fontFamily=KB금융 본문체;" edge="1" parent="9GP7ec5j9Zek77Q9aWIa-1" source="9GP7ec5j9Zek77Q9aWIa-3" target="p76jJicXP8Dn4Z7mQze4-1">
          <mxGeometry relative="1" as="geometry">
            <mxPoint x="240" y="140" as="targetPoint" />
          </mxGeometry>
        </mxCell>
        <mxCell id="9GP7ec5j9Zek77Q9aWIa-3" value="&lt;p style=&quot;line-height: 120%&quot;&gt;Call Report 등록&lt;/p&gt;" style="rounded=1;whiteSpace=wrap;html=1;fontSize=12;glass=0;strokeWidth=1;shadow=0;fontFamily=KB금융 본문체;" vertex="1" parent="9GP7ec5j9Zek77Q9aWIa-1">
          <mxGeometry x="160" y="50" width="120" height="40" as="geometry" />
        </mxCell>
        <mxCell id="9GP7ec5j9Zek77Q9aWIa-39" value="" style="edgeStyle=orthogonalEdgeStyle;rounded=0;orthogonalLoop=1;jettySize=auto;html=1;endArrow=block;endFill=0;fontFamily=KB금융 본문체;" edge="1" parent="9GP7ec5j9Zek77Q9aWIa-1" source="9GP7ec5j9Zek77Q9aWIa-7" target="9GP7ec5j9Zek77Q9aWIa-37">
          <mxGeometry relative="1" as="geometry" />
        </mxCell>
        <mxCell id="9GP7ec5j9Zek77Q9aWIa-7" value="등록" style="rounded=0;whiteSpace=wrap;html=1;fontFamily=KB금융 본문체;" vertex="1" parent="9GP7ec5j9Zek77Q9aWIa-1">
          <mxGeometry x="172" y="410" width="96" height="30" as="geometry" />
        </mxCell>
        <mxCell id="9GP7ec5j9Zek77Q9aWIa-8" value="No" style="edgeStyle=orthogonalEdgeStyle;rounded=0;orthogonalLoop=1;jettySize=auto;html=1;endArrow=block;endFill=0;entryX=0.5;entryY=0;entryDx=0;entryDy=0;fontFamily=KB금융 본문체;exitX=0.5;exitY=1;exitDx=0;exitDy=0;" edge="1" parent="9GP7ec5j9Zek77Q9aWIa-1" source="9GP7ec5j9Zek77Q9aWIa-37" target="9GP7ec5j9Zek77Q9aWIa-10">
          <mxGeometry x="-0.2" y="10" relative="1" as="geometry">
            <mxPoint x="219.99999999999977" y="639.9999999999998" as="targetPoint" />
            <mxPoint x="218" y="675" as="sourcePoint" />
            <mxPoint as="offset" />
          </mxGeometry>
        </mxCell>
        <mxCell id="UTklI60Wz0nuCLBXu9wz-9" value="" style="edgeStyle=orthogonalEdgeStyle;rounded=0;orthogonalLoop=1;jettySize=auto;html=1;startArrow=none;startFill=0;endArrow=block;endFill=0;fontFamily=KB금융 본문체;entryX=0;entryY=0.5;entryDx=0;entryDy=0;" edge="1" parent="9GP7ec5j9Zek77Q9aWIa-1" source="9GP7ec5j9Zek77Q9aWIa-10" target="UTklI60Wz0nuCLBXu9wz-8">
          <mxGeometry relative="1" as="geometry">
            <mxPoint x="220" y="785" as="targetPoint" />
          </mxGeometry>
        </mxCell>
        <mxCell id="9GP7ec5j9Zek77Q9aWIa-10" value="리스트" style="rounded=0;whiteSpace=wrap;html=1;fontFamily=KB금융 본문체;" vertex="1" parent="9GP7ec5j9Zek77Q9aWIa-1">
          <mxGeometry x="172" y="660" width="96" height="30" as="geometry" />
        </mxCell>
        <mxCell id="9GP7ec5j9Zek77Q9aWIa-11" value="Yes" style="edgeStyle=orthogonalEdgeStyle;rounded=0;orthogonalLoop=1;jettySize=auto;html=1;endArrow=block;endFill=0;entryX=0;entryY=0.5;entryDx=0;entryDy=0;exitX=1;exitY=0.5;exitDx=0;exitDy=0;fontFamily=KB금융 본문체;" edge="1" parent="9GP7ec5j9Zek77Q9aWIa-1" target="9GP7ec5j9Zek77Q9aWIa-13" source="9GP7ec5j9Zek77Q9aWIa-19">
          <mxGeometry x="-0.2" y="-10" relative="1" as="geometry">
            <mxPoint x="350" y="320" as="targetPoint" />
            <mxPoint x="269.9999999999998" y="320" as="sourcePoint" />
            <Array as="points" />
            <mxPoint as="offset" />
          </mxGeometry>
        </mxCell>
        <mxCell id="9GP7ec5j9Zek77Q9aWIa-12" value="" style="edgeStyle=orthogonalEdgeStyle;rounded=0;orthogonalLoop=1;jettySize=auto;html=1;endArrow=block;endFill=0;fontFamily=KB금융 본문체;" edge="1" parent="9GP7ec5j9Zek77Q9aWIa-1" source="9GP7ec5j9Zek77Q9aWIa-13" target="9GP7ec5j9Zek77Q9aWIa-15">
          <mxGeometry relative="1" as="geometry" />
        </mxCell>
        <mxCell id="9GP7ec5j9Zek77Q9aWIa-13" value="리서치 담당자 선택" style="rounded=0;whiteSpace=wrap;html=1;fontFamily=KB금융 본문체;" vertex="1" parent="9GP7ec5j9Zek77Q9aWIa-1">
          <mxGeometry x="320" y="305" width="110" height="30" as="geometry" />
        </mxCell>
        <mxCell id="9GP7ec5j9Zek77Q9aWIa-14" value="Yes" style="edgeStyle=orthogonalEdgeStyle;rounded=0;orthogonalLoop=1;jettySize=auto;html=1;endArrow=block;endFill=0;entryX=0;entryY=0.5;entryDx=0;entryDy=0;fontFamily=KB금융 본문체;exitX=1;exitY=0.5;exitDx=0;exitDy=0;" edge="1" parent="9GP7ec5j9Zek77Q9aWIa-1" source="9GP7ec5j9Zek77Q9aWIa-37" target="9GP7ec5j9Zek77Q9aWIa-17">
          <mxGeometry y="10" relative="1" as="geometry">
            <mxPoint x="680" y="270" as="targetPoint" />
            <mxPoint x="660" y="310" as="sourcePoint" />
            <mxPoint as="offset" />
          </mxGeometry>
        </mxCell>
        <mxCell id="9GP7ec5j9Zek77Q9aWIa-36" value="" style="edgeStyle=orthogonalEdgeStyle;rounded=0;orthogonalLoop=1;jettySize=auto;html=1;endArrow=block;endFill=0;entryX=1;entryY=0.5;entryDx=0;entryDy=0;fontFamily=KB금융 본문체;exitX=0.5;exitY=1;exitDx=0;exitDy=0;" edge="1" parent="9GP7ec5j9Zek77Q9aWIa-1" source="9GP7ec5j9Zek77Q9aWIa-15" target="9GP7ec5j9Zek77Q9aWIa-7">
          <mxGeometry relative="1" as="geometry">
            <Array as="points">
              <mxPoint x="550" y="425" />
            </Array>
          </mxGeometry>
        </mxCell>
        <mxCell id="9GP7ec5j9Zek77Q9aWIa-15" value="업무요청&lt;br&gt;(세미나, 탐방, 리퀘스트, NDR)" style="rounded=0;whiteSpace=wrap;html=1;fontFamily=KB금융 본문체;" vertex="1" parent="9GP7ec5j9Zek77Q9aWIa-1">
          <mxGeometry x="480" y="280" width="140" height="80" as="geometry" />
        </mxCell>
        <mxCell id="9GP7ec5j9Zek77Q9aWIa-16" value="" style="edgeStyle=orthogonalEdgeStyle;rounded=0;orthogonalLoop=1;jettySize=auto;html=1;endArrow=block;endFill=0;exitX=1;exitY=0.5;exitDx=0;exitDy=0;fontFamily=KB금융 본문체;" edge="1" parent="9GP7ec5j9Zek77Q9aWIa-1" source="9GP7ec5j9Zek77Q9aWIa-17" target="9GP7ec5j9Zek77Q9aWIa-21">
          <mxGeometry relative="1" as="geometry">
            <mxPoint x="655" y="290" as="sourcePoint" />
          </mxGeometry>
        </mxCell>
        <mxCell id="9GP7ec5j9Zek77Q9aWIa-17" value="저장/Push 발송" style="rounded=0;whiteSpace=wrap;html=1;fontFamily=KB금융 본문체;" vertex="1" parent="9GP7ec5j9Zek77Q9aWIa-1">
          <mxGeometry x="430" y="455" width="110" height="30" as="geometry" />
        </mxCell>
        <mxCell id="9GP7ec5j9Zek77Q9aWIa-18" value="No" style="edgeStyle=orthogonalEdgeStyle;rounded=0;orthogonalLoop=1;jettySize=auto;html=1;endArrow=block;endFill=0;fontFamily=KB금융 본문체;" edge="1" parent="9GP7ec5j9Zek77Q9aWIa-1" source="9GP7ec5j9Zek77Q9aWIa-19" target="9GP7ec5j9Zek77Q9aWIa-7">
          <mxGeometry x="0.2" y="20" relative="1" as="geometry">
            <mxPoint y="-1" as="offset" />
            <mxPoint x="216" y="440" as="targetPoint" />
          </mxGeometry>
        </mxCell>
        <mxCell id="9GP7ec5j9Zek77Q9aWIa-19" value="리서치&lt;br&gt;Request&lt;br&gt;&amp;nbsp;있는가?&amp;nbsp;" style="rhombus;whiteSpace=wrap;html=1;shadow=0;fontFamily=KB금융 본문체;fontSize=12;align=center;strokeWidth=1;spacing=6;spacingTop=-4;" vertex="1" parent="9GP7ec5j9Zek77Q9aWIa-1">
          <mxGeometry x="170" y="280" width="100" height="80" as="geometry" />
        </mxCell>
        <mxCell id="9GP7ec5j9Zek77Q9aWIa-20" value="" style="edgeStyle=orthogonalEdgeStyle;rounded=0;orthogonalLoop=1;jettySize=auto;html=1;endArrow=block;endFill=0;fontFamily=KB금융 본문체;" edge="1" parent="9GP7ec5j9Zek77Q9aWIa-1" source="9GP7ec5j9Zek77Q9aWIa-21" target="9GP7ec5j9Zek77Q9aWIa-24">
          <mxGeometry relative="1" as="geometry" />
        </mxCell>
        <mxCell id="9GP7ec5j9Zek77Q9aWIa-21" value="담당자 확인" style="rounded=0;whiteSpace=wrap;html=1;fontFamily=KB금융 본문체;" vertex="1" parent="9GP7ec5j9Zek77Q9aWIa-1">
          <mxGeometry x="635" y="455" width="110" height="30" as="geometry" />
        </mxCell>
        <mxCell id="9GP7ec5j9Zek77Q9aWIa-22" value="Yes" style="edgeStyle=orthogonalEdgeStyle;rounded=0;orthogonalLoop=1;jettySize=auto;html=1;endArrow=block;endFill=0;entryX=0.5;entryY=0;entryDx=0;entryDy=0;fontFamily=KB금융 본문체;" edge="1" parent="9GP7ec5j9Zek77Q9aWIa-1" source="9GP7ec5j9Zek77Q9aWIa-24" target="9GP7ec5j9Zek77Q9aWIa-26">
          <mxGeometry x="-0.0714" y="15" relative="1" as="geometry">
            <mxPoint x="695" y="700" as="targetPoint" />
            <mxPoint as="offset" />
          </mxGeometry>
        </mxCell>
        <mxCell id="9GP7ec5j9Zek77Q9aWIa-23" value="No" style="edgeStyle=orthogonalEdgeStyle;rounded=0;orthogonalLoop=1;jettySize=auto;html=1;endArrow=block;endFill=0;fontFamily=KB금융 본문체;" edge="1" parent="9GP7ec5j9Zek77Q9aWIa-1" source="9GP7ec5j9Zek77Q9aWIa-24" target="9GP7ec5j9Zek77Q9aWIa-29">
          <mxGeometry x="-0.0667" y="-24" relative="1" as="geometry">
            <mxPoint as="offset" />
          </mxGeometry>
        </mxCell>
        <mxCell id="9GP7ec5j9Zek77Q9aWIa-24" value="접수하겠는가?" style="rhombus;whiteSpace=wrap;html=1;shadow=0;fontFamily=KB금융 본문체;fontSize=12;align=center;strokeWidth=1;spacing=6;spacingTop=-4;" vertex="1" parent="9GP7ec5j9Zek77Q9aWIa-1">
          <mxGeometry x="640" y="540" width="100" height="80" as="geometry" />
        </mxCell>
        <mxCell id="9GP7ec5j9Zek77Q9aWIa-25" value="" style="edgeStyle=orthogonalEdgeStyle;rounded=0;orthogonalLoop=1;jettySize=auto;html=1;endArrow=block;endFill=0;entryX=0.479;entryY=0;entryDx=0;entryDy=0;entryPerimeter=0;fontFamily=KB금융 본문체;" edge="1" parent="9GP7ec5j9Zek77Q9aWIa-1" source="9GP7ec5j9Zek77Q9aWIa-26" target="9GP7ec5j9Zek77Q9aWIa-27">
          <mxGeometry relative="1" as="geometry">
            <mxPoint x="695" y="786" as="targetPoint" />
          </mxGeometry>
        </mxCell>
        <mxCell id="9GP7ec5j9Zek77Q9aWIa-26" value="업무등록(ARPS)" style="rounded=0;whiteSpace=wrap;html=1;fontFamily=KB금융 본문체;" vertex="1" parent="9GP7ec5j9Zek77Q9aWIa-1">
          <mxGeometry x="635" y="680" width="110" height="30" as="geometry" />
        </mxCell>
        <mxCell id="9GP7ec5j9Zek77Q9aWIa-27" value="세일즈 담당자&lt;br&gt;Push 전송" style="rounded=0;whiteSpace=wrap;html=1;fontFamily=KB금융 본문체;" vertex="1" parent="9GP7ec5j9Zek77Q9aWIa-1">
          <mxGeometry x="644" y="756" width="96" height="30" as="geometry" />
        </mxCell>
        <mxCell id="9GP7ec5j9Zek77Q9aWIa-28" value="" style="edgeStyle=orthogonalEdgeStyle;rounded=0;orthogonalLoop=1;jettySize=auto;html=1;endArrow=block;endFill=0;entryX=0;entryY=0.5;entryDx=0;entryDy=0;fontFamily=KB금융 본문체;" edge="1" parent="9GP7ec5j9Zek77Q9aWIa-1" source="9GP7ec5j9Zek77Q9aWIa-29" target="9GP7ec5j9Zek77Q9aWIa-27">
          <mxGeometry relative="1" as="geometry">
            <mxPoint x="515" y="675" as="targetPoint" />
            <Array as="points">
              <mxPoint x="515" y="771" />
            </Array>
          </mxGeometry>
        </mxCell>
        <mxCell id="9GP7ec5j9Zek77Q9aWIa-29" value="사유등록" style="rounded=0;whiteSpace=wrap;html=1;fontFamily=KB금융 본문체;" vertex="1" parent="9GP7ec5j9Zek77Q9aWIa-1">
          <mxGeometry x="460" y="565" width="110" height="30" as="geometry" />
        </mxCell>
        <mxCell id="9GP7ec5j9Zek77Q9aWIa-35" value="" style="edgeStyle=orthogonalEdgeStyle;rounded=0;orthogonalLoop=1;jettySize=auto;html=1;endArrow=block;endFill=0;fontFamily=KB금융 본문체;" edge="1" parent="9GP7ec5j9Zek77Q9aWIa-1" source="9GP7ec5j9Zek77Q9aWIa-33" target="9GP7ec5j9Zek77Q9aWIa-19">
          <mxGeometry relative="1" as="geometry" />
        </mxCell>
        <mxCell id="9GP7ec5j9Zek77Q9aWIa-33" value="보고/공유대상자&lt;br&gt;&amp;nbsp;선택" style="rounded=0;whiteSpace=wrap;html=1;fontFamily=KB금융 본문체;" vertex="1" parent="9GP7ec5j9Zek77Q9aWIa-1">
          <mxGeometry x="172" y="190" width="96" height="30" as="geometry" />
        </mxCell>
        <mxCell id="9GP7ec5j9Zek77Q9aWIa-37" value="리서치&lt;br&gt;업무요청이 &lt;br&gt;존재하는가?&amp;nbsp;" style="rhombus;whiteSpace=wrap;html=1;shadow=0;fontFamily=KB금융 본문체;fontSize=12;align=center;strokeWidth=1;spacing=6;spacingTop=-4;" vertex="1" parent="9GP7ec5j9Zek77Q9aWIa-1">
          <mxGeometry x="160" y="500" width="120" height="100" as="geometry" />
        </mxCell>
        <mxCell id="p76jJicXP8Dn4Z7mQze4-0" value="&lt;h1&gt;Call Report&lt;/h1&gt;&lt;div&gt;1. 방문/활동 별 등록&lt;/div&gt;&lt;div&gt;2. 리서치센터에 업무요청&lt;/div&gt;&lt;div&gt;3. 리서치센터는 접수받아 업무등록&lt;br&gt;4. 저장시 Push&lt;/div&gt;" style="text;html=1;strokeColor=#000000;fillColor=none;spacing=5;spacingTop=-20;whiteSpace=wrap;overflow=hidden;rounded=0;fontFamily=KB금융 본문체;" vertex="1" parent="9GP7ec5j9Zek77Q9aWIa-1">
          <mxGeometry x="910" y="30" width="190" height="120" as="geometry" />
        </mxCell>
        <mxCell id="p76jJicXP8Dn4Z7mQze4-2" value="" style="edgeStyle=orthogonalEdgeStyle;rounded=0;orthogonalLoop=1;jettySize=auto;html=1;endArrow=block;endFill=0;fontFamily=KB금융 본문체;" edge="1" parent="9GP7ec5j9Zek77Q9aWIa-1" source="p76jJicXP8Dn4Z7mQze4-1" target="9GP7ec5j9Zek77Q9aWIa-33">
          <mxGeometry relative="1" as="geometry" />
        </mxCell>
        <mxCell id="p76jJicXP8Dn4Z7mQze4-1" value="법인선택" style="rounded=0;whiteSpace=wrap;html=1;fontFamily=KB금융 본문체;" vertex="1" parent="9GP7ec5j9Zek77Q9aWIa-1">
          <mxGeometry x="172" y="130" width="96" height="30" as="geometry" />
        </mxCell>
        <mxCell id="UTklI60Wz0nuCLBXu9wz-2" value="" style="edgeStyle=orthogonalEdgeStyle;rounded=0;orthogonalLoop=1;jettySize=auto;html=1;endArrow=ERoneToMany;endFill=0;fontFamily=KB금융 본문체;entryX=0.5;entryY=0;entryDx=0;entryDy=0;startArrow=ERoneToMany;startFill=0;" edge="1" parent="9GP7ec5j9Zek77Q9aWIa-1" source="9GP7ec5j9Zek77Q9aWIa-32" target="p76jJicXP8Dn4Z7mQze4-3">
          <mxGeometry relative="1" as="geometry" />
        </mxCell>
        <mxCell id="9GP7ec5j9Zek77Q9aWIa-31" value="Call Report" style="swimlane;childLayout=stackLayout;horizontal=1;startSize=30;horizontalStack=0;fillColor=#008cff;fontColor=#FFFFFF;rounded=1;fontSize=14;fontStyle=0;strokeWidth=2;resizeParent=0;resizeLast=1;shadow=0;dashed=0;align=center;fontFamily=KB금융 본문체;" vertex="1" parent="9GP7ec5j9Zek77Q9aWIa-1">
          <mxGeometry x="840" y="240" width="120" height="290" as="geometry" />
        </mxCell>
        <mxCell id="9GP7ec5j9Zek77Q9aWIa-32" value="+Seq&#xa;+제목&#xa;+날짜&#xa;+시간&#xa;+고객(법인)&#xa;+고객명(ID)&#xa;+목적(ID)&#xa;+목적&#xa;+내용&#xa;+첨부파일&#xa;+리서치 Request ID&#xa;+등록일&#xa;+등록자&#xa;+수정일&#xa;+수정자&#xa;+...&#xa;&#xa;" style="align=left;strokeColor=none;fillColor=none;spacingLeft=4;fontSize=12;verticalAlign=top;resizable=0;rotatable=0;part=1;fontFamily=KB금융 본문체;" vertex="1" parent="9GP7ec5j9Zek77Q9aWIa-31">
          <mxGeometry y="30" width="120" height="260" as="geometry" />
        </mxCell>
        <mxCell id="p76jJicXP8Dn4Z7mQze4-3" value="Customer" style="swimlane;childLayout=stackLayout;horizontal=1;startSize=30;horizontalStack=0;fillColor=#008cff;fontColor=#FFFFFF;rounded=1;fontSize=14;fontStyle=0;strokeWidth=2;resizeParent=0;resizeLast=1;shadow=0;dashed=0;align=center;fontFamily=KB금융 본문체;" vertex="1" parent="9GP7ec5j9Zek77Q9aWIa-1">
          <mxGeometry x="845" y="565" width="110" height="70" as="geometry" />
        </mxCell>
        <mxCell id="p76jJicXP8Dn4Z7mQze4-4" value="+...." style="align=left;strokeColor=none;fillColor=none;spacingLeft=4;fontSize=12;verticalAlign=top;resizable=0;rotatable=0;part=1;fontFamily=KB금융 본문체;" vertex="1" parent="p76jJicXP8Dn4Z7mQze4-3">
          <mxGeometry y="30" width="110" height="40" as="geometry" />
        </mxCell>
        <mxCell id="UTklI60Wz0nuCLBXu9wz-3" value="Request" style="swimlane;childLayout=stackLayout;horizontal=1;startSize=30;horizontalStack=0;fillColor=#008cff;fontColor=#FFFFFF;rounded=1;fontSize=14;fontStyle=0;strokeWidth=2;resizeParent=0;resizeLast=1;shadow=0;dashed=0;align=center;fontFamily=KB금융 본문체;" vertex="1" parent="9GP7ec5j9Zek77Q9aWIa-1">
          <mxGeometry x="1010" y="240" width="120" height="190" as="geometry" />
        </mxCell>
        <mxCell id="UTklI60Wz0nuCLBXu9wz-4" value="+Request ID&#xa;+Seq&#xa;+애널리스트 ID&#xa;+확연여부&#xa;+진행여부&#xa;+등록일&#xa;+..." style="align=left;strokeColor=none;fillColor=none;spacingLeft=4;fontSize=12;verticalAlign=top;resizable=0;rotatable=0;part=1;fontFamily=KB금융 본문체;" vertex="1" parent="UTklI60Wz0nuCLBXu9wz-3">
          <mxGeometry y="30" width="120" height="160" as="geometry" />
        </mxCell>
        <mxCell id="UTklI60Wz0nuCLBXu9wz-5" value="" style="edgeStyle=orthogonalEdgeStyle;rounded=0;orthogonalLoop=1;jettySize=auto;html=1;startArrow=none;startFill=0;endArrow=ERoneToMany;endFill=0;fontFamily=KB금융 본문체;" edge="1" parent="9GP7ec5j9Zek77Q9aWIa-1" source="9GP7ec5j9Zek77Q9aWIa-32" target="UTklI60Wz0nuCLBXu9wz-4">
          <mxGeometry relative="1" as="geometry" />
        </mxCell>
        <mxCell id="UTklI60Wz0nuCLBXu9wz-8" value="Push 발송" style="rounded=0;whiteSpace=wrap;html=1;fontFamily=KB금융 본문체;" vertex="1" parent="9GP7ec5j9Zek77Q9aWIa-1">
          <mxGeometry x="300" y="660" width="96" height="30" as="geometry" />
        </mxCell>
      </root>
    </mxGraphModel>
  </diagram>
</mxfile>
